<?xml version="1.0" standalone="no"?>
<!DOCTYPE svg PUBLIC "-//W3C//DTD SVG 20010904//EN"
 "http://www.w3.org/TR/2001/REC-SVG-20010904/DTD/svg10.dtd">
<svg version="1.0" xmlns="http://www.w3.org/2000/svg"
 width="32.000000pt" height="32.000000pt" viewBox="0 0 32.000000 32.000000"
 preserveAspectRatio="xMidYMid meet">

<g transform="translate(0.000000,32.000000) scale(0.100000,-0.100000)"
fill="#000000" stroke="none">
<path d="M140 290 c0 -5 9 -10 20 -10 11 0 20 5 20 10 0 6 -9 10 -20 10 -11 0
-20 -4 -20 -10z"/>
<path d="M83 235 c-17 -17 -23 -36 -23 -67 0 -32 -5 -47 -20 -58 -11 -8 -20
-22 -20 -32 0 -15 9 -18 50 -18 43 0 50 -3 50 -20 0 -17 7 -20 40 -20 33 0 40
3 40 20 0 17 7 20 50 20 41 0 50 3 50 18 0 10 -9 24 -20 32 -15 11 -20 26 -20
58 0 63 -32 92 -102 91 -43 0 -57 -5 -75 -24z m97 -25 c33 -35 40 -37 40 -10
0 13 -7 20 -20 20 -11 0 -20 5 -20 10 0 15 29 12 46 -4 8 -8 14 -34 14 -58 0
-32 5 -47 20 -58 11 -8 20 -18 20 -22 0 -4 -54 -8 -120 -8 -66 0 -120 4 -120
8 0 4 9 14 20 22 15 11 20 26 20 58 0 75 49 96 100 42z m0 -160 c0 -5 -9 -10
-20 -10 -11 0 -20 5 -20 10 0 6 9 10 20 10 11 0 20 -4 20 -10z"/>
</g>
</svg>
